PathFileType	4	(X/Y/Z)	C:\Users\WrightLab\Desktop\Jo\P1.2Trial32.trc
DataRate	CameraRate	NumFrames	NumMarkers	Units	OrigDataRate	OrigDataStartFrame	OrigNumFrames
100.00	100.00	       9	19	mm	100.00	272	       724
Frame#	Time	Headset_Front			Headset_Back			Headset_Left			Headset_Right			Left_Shoulder			Right_Shoulder			Sternum			C7			Left Elbow			Right Elbow			Left Wrist			Right Wrist			Left ASIS			Right ASIS			S2			Left Knee			Right Knee			Left Ankle			Right Ankle			
		X1	Y1	Z1	X2	Y2	Z2	X3	Y3	Z3	X4	Y4	Z4	X5	Y5	Z5	X6	Y6	Z6	X7	Y7	Z7	X8	Y8	Z8	X9	Y9	Z9	X10	Y10	Z10	X11	Y11	Z11	X12	Y12	Z12	X13	Y13	Z13	X14	Y14	Z14	X15	Y15	Z15	X16	Y16	Z16	X17	Y17	Z17	X18	Y18	Z18	X19	Y19	Z19	

272	2.710	-598.36267	1306.28271	-486.97964	-576.85883	1478.22009	-737.85205	-476.15372	1380.22876	-641.05084	-696.38409	1379.05652	-573.95581	-391.60364	1187.11658	-707.49738	-818.08911	1209.68140	-732.07068	-618.14508	1139.33264	-594.87268	-596.51343	1263.65308	-827.38550	-328.42310	899.98285	-757.08014	-891.79199	963.30603	-798.11920	-306.41690	684.99524	-632.34802	-957.60388	707.90009	-735.42450	-507.51242	819.94281	-588.41400	-773.33948	820.61926	-632.62061	-584.45300	858.11871	-882.12433	-468.62140	381.94479	-643.88062	-820.60181	425.42096	-597.09698	-374.58939	128.42909	-919.48682	-854.04327	89.68998	-567.47827	
273	2.720	-600.79724	1308.42456	-480.36478	-582.12494	1479.59766	-730.40302	-480.12802	1382.31409	-635.04822	-699.79248	1380.88708	-565.27319	-395.84253	1189.02173	-700.86035	-822.48260	1211.26050	-720.69733	-621.94861	1141.78882	-587.10645	-602.83008	1264.53796	-818.38947	-336.04288	902.00067	-754.72150	-898.54175	965.45099	-785.76099	-308.98761	686.87238	-631.43890	-963.39362	710.67169	-722.50385	-512.47253	821.25287	-579.73639	-778.46936	822.68494	-624.02142	-590.01031	859.87964	-873.34955	-480.03577	381.88235	-632.20422	-825.42468	425.83997	-591.54462	-383.16702	136.58044	-907.40515	-856.78894	84.92932	-577.08539	
274	2.730	-603.32013	1310.68787	-472.65817	-587.25348	1480.98792	-723.11841	-484.07367	1384.14966	-628.79950	-702.83228	1382.89880	-556.33051	-400.29434	1191.91931	-696.29089	-828.17053	1213.63806	-709.49017	-625.17358	1143.71399	-579.19183	-609.22113	1266.86682	-811.14185	-341.92065	904.54108	-751.77716	-905.07202	967.61072	-773.66351	-310.59390	689.45172	-630.81885	-969.02777	712.41986	-708.21460	-516.84113	822.14191	-572.45715	-783.03387	825.23108	-615.25391	-595.08252	861.40619	-865.00665	-488.86484	382.42264	-614.12872	-829.71838	425.85330	-587.06079	-393.79947	145.33017	-895.73566	-857.30151	85.30603	-566.47437	
275	2.740	-605.26764	1313.04675	-463.27783	-592.31732	1482.59229	-715.70941	-488.47827	1385.74146	-622.21667	-706.38049	1385.06238	-548.20465	-404.74365	1194.50989	-690.56732	-832.73279	1215.59180	-698.13660	-628.00513	1144.20996	-570.47754	-614.97968	1268.59583	-803.82086	-347.84857	907.18243	-748.92303	-911.19836	969.70905	-760.94086	-313.81165	690.68378	-630.86658	-974.96307	715.25299	-694.07672	-520.75006	824.12720	-563.47906	-787.03052	827.17480	-606.30890	-599.91486	862.33112	-856.90454	-497.87827	385.67038	-598.60693	-832.75244	424.84552	-581.57135	-403.65228	153.64665	-882.94708	-857.73193	83.59148	-565.38525	
276	2.750	-606.70093	1315.59668	-454.89557	-597.24066	1483.95166	-708.39673	-492.04959	1387.54419	-616.09406	-709.81396	1387.04187	-539.54352	-408.99585	1196.26184	-685.00616	-836.63147	1216.94263	-686.39856	-631.72742	1146.42847	-563.69897	-621.33240	1271.03223	-796.42950	-353.58295	909.74847	-746.62292	-918.02637	972.05865	-748.46039	-317.24792	692.90540	-630.11951	-980.34729	716.83771	-680.47412	-525.35944	825.17511	-557.72546	-790.95819	829.04626	-597.93158	-604.43158	863.58838	-849.66913	-505.30722	386.44257	-576.38794	-836.04803	424.77087	-578.47571	-413.41904	161.93674	-867.69788	-858.15521	82.83247	-565.67657	
277	2.760	-608.21716	1316.72083	-446.79239	-601.94116	1485.11072	-700.69708	-495.51813	1389.20679	-608.94507	-712.31268	1388.30005	-530.45825	-412.53598	1198.35120	-679.95697	-840.11523	1218.58459	-674.37756	-634.42761	1147.94617	-556.61224	-625.95209	1270.38391	-786.42517	-358.83234	911.76929	-742.98529	-924.04388	973.68427	-735.61945	-320.93973	694.53540	-630.12097	-985.99542	719.79303	-666.03815	-528.98688	827.61407	-551.33795	-795.25830	831.60907	-588.64764	-609.07977	864.63708	-842.95282	-513.57477	386.35025	-558.84692	-839.98602	424.94400	-575.20123	-423.64365	170.29288	-853.05048	-858.21014	80.63467	-564.56744	
278	2.770	-609.76666	1319.32703	-440.17966	-606.49371	1486.75977	-693.39331	-499.17255	1390.62415	-601.20343	-715.40210	1390.02136	-521.86230	-416.74915	1200.10547	-675.35095	-843.92267	1220.77039	-664.20215	-633.96381	1148.84595	-547.33398	-631.27966	1271.82703	-778.46094	-363.95941	914.25195	-740.37158	-930.16321	975.43921	-722.30255	-325.04614	696.15668	-628.23938	-991.19122	721.06091	-651.63525	-528.63110	829.54926	-542.60980	-799.02576	832.95990	-578.43640	-613.96387	865.82324	-836.38531	-519.89691	390.28827	-534.42670	-841.36639	423.00671	-571.40912	-434.68527	178.67014	-838.50793	-860.09167	73.91637	-578.43805	
279	2.780	-610.89001	1320.89099	-433.17606	-610.85144	1488.07568	-686.10004	-502.00806	1392.70056	-595.00977	-718.16034	1391.31689	-513.28082	-419.98544	1201.88245	-670.20038	-847.80920	1221.54492	-651.55121	-635.65918	1149.43176	-539.65015	-637.15570	1274.70801	-772.31854	-368.33881	915.86896	-736.80328	-936.44403	977.89191	-709.55109	-328.58682	698.23096	-627.39941	-995.91425	722.39026	-635.92633	-530.71191	830.96912	-537.64142	-801.05408	835.05304	-565.70752	-619.33960	867.09100	-829.51959	-526.11017	393.74225	-514.59229	-843.79498	423.54321	-566.98798	-444.38345	186.08255	-823.50873	-860.53876	73.44803	-576.35620	
280	2.790	-612.53729	1321.83875	-426.31387	-615.08337	1489.39893	-678.05896	-504.98169	1393.75598	-588.20032	-718.48676	1391.48682	-503.91171	-423.32056	1202.99805	-665.89087	-850.55591	1222.53931	-640.43292	-637.67334	1150.86890	-532.88464	-641.41711	1274.96814	-762.91003	-371.90652	917.20850	-734.06403	-942.28247	979.58289	-695.69586	-333.49625	698.51062	-625.23389	-1000.94794	724.50439	-621.71375	-533.49194	832.09222	-533.09668	-804.32971	831.15869	-569.08820	-625.10767	868.94055	-823.26666	-533.14667	399.24631	-494.52023	-846.51563	423.84625	-564.04102	-454.62241	191.75163	-807.46985	-860.12103	72.60316	-576.93024	
